<?xml version="1.0" standalone="no"?>
<!DOCTYPE svg PUBLIC "-//W3C//DTD SVG 20010904//EN"
 "http://www.w3.org/TR/2001/REC-SVG-20010904/DTD/svg10.dtd">
<svg version="1.0" xmlns="http://www.w3.org/2000/svg"
 width="1370.000000pt" height="1247.000000pt" viewBox="0 0 1370.000000 1247.000000"
 preserveAspectRatio="xMidYMid meet">

<g transform="translate(0.000000,1247.000000) scale(0.100000,-0.100000)"
fill="#000000" stroke="none">
<path d="M6715 12403 c-1814 -34 -3553 -895 -4689 -2321 -182 -229 -394 -540
-524 -769 l-41 -73 184 0 184 0 52 88 c433 721 1041 1357 1751 1830 809 539
1681 848 2698 954 195 20 893 17 1090 -5 956 -108 1745 -380 2534 -874 740
-464 1410 -1148 1865 -1905 l52 -88 184 0 184 0 -55 95 c-750 1300 -1981 2295
-3417 2764 -538 175 -1127 282 -1637 297 -96 2 -202 6 -235 7 -33 1 -114 1
-180 0z"/>
<path d="M4355 8254 c-61 -21 -110 -68 -142 -132 -24 -49 -28 -69 -28 -142 0
-65 5 -96 21 -131 46 -100 138 -152 269 -153 104 -1 160 19 221 78 42 41 56
63 69 110 47 162 -30 330 -169 371 -62 19 -188 18 -241 -1z"/>
<path d="M710 6210 l0 -2010 250 0 250 0 0 785 0 785 493 0 c528 0 719 9 886
41 413 80 708 283 861 594 84 171 120 344 120 580 -1 284 -55 485 -186 682
-210 317 -559 501 -1024 543 -65 5 -447 10 -882 10 l-768 0 0 -2010z m1595
1570 c380 -43 627 -238 716 -565 32 -114 32 -353 0 -470 -37 -138 -83 -219
-180 -315 -97 -97 -177 -142 -322 -184 -140 -40 -243 -46 -794 -46 l-515 0 0
795 0 795 503 0 c276 0 543 -5 592 -10z"/>
<path d="M5300 8005 l0 -215 645 0 645 0 0 -1795 0 -1795 260 0 260 0 2 1793
3 1792 648 3 647 2 0 215 0 215 -1555 0 -1555 0 0 -215z"/>
<path d="M9010 6210 l0 -2010 265 0 265 0 0 757 c0 598 -5 924 -25 1546 -14
433 -25 821 -23 861 l3 73 656 -1616 656 -1616 204 -3 204 -2 564 1392 c766
1889 753 1859 758 1855 2 -3 -8 -384 -22 -847 -19 -654 -25 -1018 -25 -1622
l0 -778 260 0 260 0 0 2010 0 2010 -339 0 -339 0 -547 -1367 c-769 -1923 -767
-1919 -778 -1901 -6 8 -303 746 -661 1639 l-651 1624 -343 3 -342 2 0 -2010z"/>
<path d="M4220 5690 l0 -1490 255 0 255 0 0 1490 0 1490 -255 0 -255 0 0
-1490z"/>
<path d="M1517 3133 c510 -883 1270 -1655 2153 -2185 835 -501 1769 -796 2750
-868 187 -14 674 -14 860 0 1319 98 2535 590 3540 1433 538 451 1017 1021
1364 1622 l55 95 -183 0 -184 0 -63 -102 c-930 -1523 -2487 -2530 -4249 -2748
-277 -34 -476 -43 -820 -37 -385 6 -615 29 -960 93 -1408 263 -2692 1057
-3555 2199 -97 129 -270 383 -344 508 l-52 87 -184 0 -184 0 56 -97z"/>
</g>
</svg>
